<svg width="186" height="438" viewBox="0 0 186 438" fill="none" xmlns="http://www.w3.org/2000/svg">
<path d="M25 147.282V-4" stroke="#D8DBE7" stroke-width="3"/>
<path d="M161 398.812V-1.26599" stroke="#D8DBE7" stroke-width="3"/>
<path d="M21.8926 149.118C22.1785 148.567 22.6207 148.103 23.1693 147.779C23.7178 147.454 24.3508 147.282 24.9966 147.282C25.6425 147.282 26.2754 147.454 26.824 147.779C27.3725 148.103 27.8147 148.567 28.1006 149.118L33.951 160.396L47.0324 162.208C47.6719 162.295 48.2729 162.552 48.7672 162.947C49.2616 163.343 49.6297 163.863 49.8298 164.447C50.0299 165.032 50.0541 165.658 49.8996 166.255C49.7451 166.852 49.4181 167.395 48.9556 167.825L39.4859 176.604L41.7206 188.998C41.8301 189.604 41.7592 190.227 41.5159 190.796C41.2725 191.366 40.8666 191.859 40.3439 192.22C39.8212 192.582 39.2026 192.797 38.5581 192.841C37.9137 192.885 37.2691 192.757 36.6973 192.471L24.9966 186.616L13.296 192.471C12.7241 192.757 12.0795 192.885 11.4351 192.841C10.7906 192.797 10.1721 192.582 9.64935 192.22C9.12664 191.859 8.72067 191.366 8.47737 190.796C8.23406 190.227 8.16314 189.604 8.27261 188.998L10.5035 176.604L1.04144 167.821C0.580149 167.392 0.254098 166.849 0.10008 166.253C-0.053938 165.656 -0.029793 165.031 0.169791 164.448C0.369375 163.864 0.736454 163.345 1.22961 162.949C1.72277 162.553 2.32238 162.296 2.96078 162.208L16.0384 160.396L21.8926 149.118Z" fill="#DFE7F4"/>
<path d="M157.893 394.268C158.179 393.717 158.621 393.254 159.169 392.929C159.718 392.605 160.351 392.433 160.997 392.433C161.642 392.433 162.275 392.605 162.824 392.929C163.372 393.254 163.815 393.717 164.101 394.268L169.951 405.547L183.032 407.358C183.672 407.446 184.273 407.702 184.767 408.098C185.262 408.494 185.63 409.013 185.83 409.598C186.03 410.182 186.054 410.808 185.9 411.405C185.745 412.002 185.418 412.546 184.956 412.975L175.486 421.754L177.721 434.149C177.83 434.754 177.759 435.377 177.516 435.947C177.273 436.516 176.867 437.01 176.344 437.371C175.821 437.732 175.203 437.947 174.558 437.991C173.914 438.036 173.269 437.907 172.697 437.621L160.997 431.766L149.296 437.621C148.724 437.907 148.08 438.036 147.435 437.991C146.791 437.947 146.172 437.732 145.649 437.371C145.127 437.01 144.721 436.516 144.477 435.947C144.234 435.377 144.163 434.754 144.273 434.149L146.504 421.754L137.041 412.972C136.58 412.542 136.254 411.999 136.1 411.403C135.946 410.807 135.97 410.182 136.17 409.598C136.369 409.014 136.736 408.495 137.23 408.099C137.723 407.704 138.322 407.447 138.961 407.358L152.038 405.547L157.893 394.268Z" fill="#DFE7F4"/>
</svg>
