<svg width="302" height="234" viewBox="0 0 302 234" fill="none" xmlns="http://www.w3.org/2000/svg">
<path d="M82.2296 125.466C82.2882 125.09 82.4547 124.734 82.7102 124.438C82.9656 124.143 83.2999 123.919 83.6753 123.793C84.0506 123.667 84.4519 123.644 84.834 123.725C85.2161 123.807 85.5636 123.99 85.8372 124.254L91.4378 129.667L99.3932 128.167C99.7819 128.093 100.181 128.125 100.546 128.258C100.91 128.392 101.225 128.622 101.456 128.922C101.686 129.223 101.822 129.582 101.849 129.959C101.876 130.336 101.792 130.716 101.607 131.056L97.8169 138.005L101.534 144.772C101.716 145.102 101.796 145.478 101.766 145.857C101.736 146.235 101.596 146.601 101.363 146.913C101.13 147.225 100.812 147.471 100.446 147.622C100.08 147.774 99.6808 147.825 99.2927 147.77L91.3506 146.651L85.6937 152.337C85.4172 152.614 85.0676 152.815 84.6845 152.915C84.3013 153.015 83.8999 153.011 83.5257 152.903C83.1514 152.795 82.8192 152.587 82.5667 152.304C82.3142 152.02 82.1514 151.672 82.0968 151.299L80.9746 143.661L73.7622 140.403C73.4104 140.244 73.1149 139.992 72.9091 139.676C72.7033 139.359 72.5953 138.991 72.5974 138.613C72.5995 138.235 72.7115 137.862 72.9208 137.535C73.1302 137.209 73.4285 136.943 73.7822 136.767L81.0284 133.162L82.2296 125.466Z" fill="#DFE7F4"/>
<path d="M216.868 103.867C217.228 103.674 217.641 103.587 218.059 103.615C218.478 103.643 218.885 103.785 219.236 104.025C219.587 104.266 219.866 104.595 220.043 104.975C220.22 105.355 220.288 105.772 220.238 106.177L219.216 114.477L225.644 120.329C225.958 120.615 226.189 120.978 226.31 121.376C226.431 121.775 226.438 122.194 226.329 122.586C226.22 122.978 226 123.327 225.694 123.593C225.388 123.86 225.008 124.033 224.597 124.094L216.189 125.336L212.789 132.896C212.623 133.266 212.353 133.577 212.009 133.796C211.665 134.015 211.261 134.131 210.843 134.133C210.424 134.135 210.009 134.021 209.642 133.805C209.276 133.589 208.974 133.28 208.77 132.912L204.597 125.378L196.066 124.202C195.649 124.145 195.251 123.974 194.918 123.711C194.584 123.447 194.329 123.1 194.179 122.709C194.03 122.318 193.993 121.899 194.073 121.5C194.153 121.1 194.346 120.735 194.631 120.447L200.455 114.549L198.587 106.26C198.497 105.855 198.522 105.439 198.66 105.058C198.798 104.677 199.044 104.346 199.37 104.104C199.695 103.861 200.088 103.716 200.503 103.685C200.918 103.653 201.339 103.737 201.719 103.927L209.492 107.81L216.868 103.867Z" fill="#DFE7F4"/>
<path d="M61.2107 16.6545C61.3234 16.2108 61.5629 15.8033 61.9023 15.4782C62.2416 15.153 62.6673 14.9232 63.131 14.8146C63.5948 14.706 64.0782 14.723 64.5266 14.8637C64.9751 15.0043 65.3706 15.2631 65.6686 15.6106L71.7659 22.7257L81.4641 21.8269C81.9381 21.7823 82.4127 21.8653 82.8342 22.0664C83.2558 22.2675 83.6074 22.5787 83.8494 22.9648C84.0914 23.3509 84.214 23.7964 84.2035 24.251C84.1929 24.7056 84.0495 25.1511 83.7896 25.5371L78.4656 33.4333L82.1544 41.9577C82.3349 42.3744 82.3887 42.8336 82.3097 43.2834C82.2308 43.7333 82.0222 44.1558 81.7076 44.5031C81.393 44.8505 80.985 45.1089 80.5296 45.249C80.0743 45.3892 79.5899 45.4055 79.1311 45.2961L69.7446 43.0591L62.3271 49.2309C61.9646 49.5325 61.5233 49.733 61.053 49.8096C60.5828 49.8862 60.1025 49.8358 59.6664 49.6642C59.2303 49.4926 58.8558 49.2066 58.5854 48.8386C58.3149 48.4706 58.1592 48.0352 58.136 47.5818L57.6539 38.3065L49.3827 33.5909C48.9792 33.3603 48.6538 33.025 48.4429 32.6228C48.2321 32.2207 48.1443 31.7677 48.1895 31.315C48.2347 30.8623 48.411 30.4278 48.6986 30.0607C48.9861 29.6935 49.3735 29.4083 49.817 29.2372L58.9033 25.7375L61.2107 16.6545Z" fill="#DFE7F4"/>
<path d="M224.883 165.155C225.207 164.53 225.709 164.004 226.332 163.636C226.954 163.267 227.673 163.072 228.406 163.072C229.139 163.072 229.857 163.267 230.48 163.636C231.102 164.004 231.604 164.53 231.929 165.155L238.569 177.956L253.416 180.012C254.142 180.112 254.824 180.403 255.385 180.852C255.947 181.301 256.364 181.891 256.591 182.554C256.819 183.218 256.846 183.928 256.671 184.606C256.495 185.283 256.124 185.901 255.599 186.388L244.851 196.352L247.388 210.42C247.512 211.107 247.431 211.814 247.155 212.461C246.879 213.107 246.418 213.667 245.825 214.077C245.232 214.487 244.53 214.731 243.798 214.781C243.067 214.832 242.335 214.686 241.686 214.361L228.406 207.716L215.125 214.361C214.476 214.686 213.745 214.832 213.013 214.781C212.282 214.731 211.58 214.487 210.986 214.077C210.393 213.667 209.932 213.107 209.656 212.461C209.38 211.814 209.3 211.107 209.424 210.42L211.956 196.352L201.216 186.384C200.693 185.897 200.323 185.28 200.148 184.603C199.973 183.927 200.001 183.217 200.227 182.555C200.454 181.892 200.87 181.303 201.43 180.854C201.99 180.405 202.67 180.113 203.395 180.012L218.238 177.956L224.883 165.155Z" fill="#DFE7F4"/>
</svg>
