<svg width="162" height="167" viewBox="0 0 162 167" fill="none" xmlns="http://www.w3.org/2000/svg">
<path d="M79.8516 10.9146C79.6254 10.6081 79.311 10.3722 78.9441 10.2338C78.5772 10.0953 78.1724 10.0597 77.7754 10.1309C77.3785 10.2022 77.0052 10.3776 76.6977 10.6371C76.3903 10.8967 76.161 11.2301 76.0358 11.5997L73.4735 19.1658L65.5989 21.721C65.2138 21.8455 64.868 22.069 64.6004 22.3665C64.3328 22.6639 64.1542 23.0233 64.0847 23.4041C64.0153 23.7848 64.0578 24.1716 64.2075 24.5208C64.3572 24.87 64.608 25.1676 64.9316 25.38L71.557 29.7215L71.3194 37.5733C71.3076 37.9572 71.4083 38.3315 71.6101 38.6541C71.8118 38.9767 72.1066 39.2346 72.461 39.3986C72.8154 39.5626 73.2153 39.6263 73.6155 39.5823C74.0156 39.5383 74.4001 39.3885 74.7253 39.1498L81.3806 34.2657L89.1092 36.567C89.4869 36.6795 89.8949 36.687 90.287 36.5887C90.679 36.4904 91.0395 36.2903 91.3277 36.0109C91.6159 35.7314 91.8202 35.3839 91.9175 35.0076C92.0149 34.6314 92.0014 34.2413 91.8786 33.8817L89.3713 26.5227L94.3823 20.0895C94.6265 19.7752 94.7771 19.4059 94.8171 19.0231C94.8572 18.6404 94.785 18.2594 94.6088 17.9233C94.4327 17.5871 94.1594 17.3092 93.82 17.1207C93.4806 16.9323 93.0886 16.8409 92.688 16.8569L84.4837 17.1888L79.8516 10.9146Z" fill="#DFE7F4"/>
<path d="M132.855 70.4631C132.88 70.1473 132.812 69.8291 132.659 69.5446C132.506 69.2601 132.273 69.0206 131.988 68.8532C131.702 68.6858 131.375 68.5971 131.044 68.5973C130.712 68.5974 130.389 68.6864 130.111 68.854L124.424 72.2866L118.145 69.6908C117.838 69.5635 117.502 69.5202 117.175 69.5658C116.847 69.6113 116.542 69.7439 116.292 69.9485C116.043 70.1531 115.86 70.4216 115.765 70.7236C115.669 71.0255 115.664 71.3489 115.75 71.6572L117.521 77.964L113.125 82.8235C112.91 83.061 112.77 83.3527 112.721 83.6656C112.672 83.9786 112.716 84.3003 112.847 84.5944C112.979 84.8884 113.193 85.1431 113.466 85.3295C113.739 85.516 114.059 85.6268 114.39 85.6494L121.172 86.113L124.733 91.715C124.907 91.9888 125.156 92.2122 125.453 92.3598C125.75 92.5074 126.083 92.5734 126.413 92.5503C126.744 92.5273 127.059 92.416 127.323 92.2292C127.587 92.0424 127.79 91.7874 127.908 91.4932L130.33 85.4762L136.927 84.0749C137.249 84.0061 137.543 83.8522 137.775 83.6306C138.007 83.4089 138.168 83.1283 138.24 82.8205C138.312 82.5126 138.293 82.1897 138.184 81.8882C138.075 81.5867 137.88 81.3186 137.623 81.1141L132.341 76.9295L132.855 70.4631Z" fill="#DFE7F4"/>
<path d="M48.0435 127.834C47.6006 127.951 47.1968 128.197 46.8778 128.546C46.5588 128.895 46.3373 129.333 46.2384 129.809C46.1394 130.285 46.1669 130.782 46.3178 131.242C46.4687 131.702 46.7369 132.108 47.0922 132.413L54.3652 138.663L53.6726 148.622C53.6382 149.109 53.7318 149.596 53.9427 150.028C54.1537 150.461 54.4736 150.821 54.8663 151.069C55.259 151.317 55.7088 151.442 56.1649 151.431C56.6209 151.419 57.0649 151.271 57.4468 151.004L65.2569 145.525L73.8924 149.299C74.3145 149.484 74.7765 149.538 75.2263 149.456C75.6761 149.374 76.0956 149.16 76.4375 148.836C76.7793 148.513 77.0298 148.093 77.1607 147.625C77.2915 147.158 77.2974 146.66 77.1777 146.189L74.7296 136.555L80.7637 128.929C81.0586 128.557 81.2503 128.103 81.317 127.62C81.3837 127.137 81.3228 126.644 81.1411 126.197C80.9595 125.749 80.6643 125.365 80.2891 125.088C79.9139 124.811 79.4736 124.652 79.018 124.629L69.6982 124.148L64.7865 115.663C64.5463 115.249 64.2027 114.916 63.7946 114.7C63.3864 114.484 62.9298 114.394 62.4764 114.442C62.023 114.489 61.5908 114.67 61.2285 114.966C60.8663 115.262 60.5884 115.66 60.4262 116.116L57.1101 125.451L48.0435 127.834Z" fill="#DFE7F4"/>
</svg>
