<svg width="57" height="52" viewBox="0 0 57 52" fill="none" xmlns="http://www.w3.org/2000/svg">
<path d="M24.8826 2.15548C25.2071 1.53014 25.7091 1.00364 26.3317 0.635502C26.9542 0.267363 27.6727 0.0722656 28.4057 0.0722656C29.1387 0.0722656 29.8571 0.267363 30.4797 0.635502C31.1023 1.00364 31.6042 1.53014 31.9288 2.15548L38.5689 14.9564L53.4165 17.0123C54.1423 17.1119 54.8244 17.4028 55.3855 17.852C55.9466 18.3013 56.3643 18.891 56.5915 19.5544C56.8186 20.2178 56.846 20.9284 56.6707 21.6059C56.4954 22.2833 56.1242 22.9006 55.5993 23.3878L44.8511 33.3519L47.3875 47.4196C47.5118 48.1072 47.4313 48.8142 47.1551 49.4605C46.879 50.1069 46.4182 50.6668 45.8249 51.077C45.2316 51.4871 44.5296 51.7311 43.7981 51.7813C43.0666 51.8316 42.335 51.686 41.686 51.3612L28.4057 44.7157L15.1254 51.3612C14.4764 51.686 13.7447 51.8316 13.0133 51.7813C12.2818 51.7311 11.5797 51.4871 10.9865 51.077C10.3932 50.6668 9.93243 50.1069 9.65628 49.4605C9.38013 48.8142 9.29962 48.1072 9.42388 47.4196L11.9559 33.3519L1.21647 23.3837C0.692895 22.8966 0.322826 22.2799 0.148015 21.6034C-0.0267961 20.9268 0.00060863 20.2172 0.227137 19.5547C0.453666 18.8922 0.870303 18.3031 1.43004 17.8538C1.98977 17.4046 2.67033 17.1131 3.39492 17.0123L18.2381 14.9564L24.8826 2.15548Z" fill="#DFE7F4"/>
</svg>
